<svg width="65" height="65" viewBox="0 0 65 65" fill="none" xmlns="http://www.w3.org/2000/svg">
<path d="M0 32.5C0 14.5507 14.5507 0 32.5 0C50.4493 0 65 14.5507 65 32.5C65 50.4493 50.4493 65 32.5 65C14.5507 65 0 50.4493 0 32.5ZM48.0698 24.8555C48.4927 24.4177 48.7267 23.8313 48.7214 23.2226C48.7161 22.614 48.472 22.0317 48.0415 21.6013C47.6111 21.1709 47.0289 20.9268 46.4202 20.9215C45.8115 20.9162 45.2251 21.1502 44.7873 21.573L29.0179 37.3425L21.3734 29.698C20.9356 29.2752 20.3492 29.0412 19.7405 29.0465C19.1318 29.0518 18.5496 29.2959 18.1192 29.7263C17.6888 30.1567 17.4446 30.739 17.4393 31.3476C17.434 31.9563 17.668 32.5427 18.0909 32.9805L27.3766 42.2663C27.8119 42.7015 28.4023 42.9459 29.0179 42.9459C29.6334 42.9459 30.2238 42.7015 30.6591 42.2663L48.0698 24.8555Z" fill="#4ABBFF"/>
</svg>
