<svg width="40" height="40" viewBox="0 0 40 40" fill="none" xmlns="http://www.w3.org/2000/svg">
<path d="M39.9105 1.71449C40.0014 1.48734 40.0237 1.23849 39.9745 0.998801C39.9253 0.759114 39.8069 0.539126 39.6339 0.366112C39.4609 0.193098 39.2409 0.0746661 39.0012 0.0254981C38.7615 -0.0236699 38.5127 -0.00141147 38.2855 0.0895141L1.91931 14.6368H1.91681L0.786847 15.0868C0.57283 15.1722 0.386575 15.3151 0.248655 15.4996C0.110735 15.6842 0.0265185 15.9033 0.00530786 16.1328C-0.0159027 16.3622 0.0267181 16.5931 0.128462 16.7998C0.230207 17.0065 0.387115 17.1811 0.581854 17.3043L1.60682 17.9543L1.60932 17.9593L14.0964 25.9042L22.0411 38.3915L22.0461 38.3965L22.6961 39.4215C22.8196 39.6155 22.9943 39.7717 23.2009 39.8728C23.4075 39.9739 23.638 40.016 23.8669 39.9945C24.0959 39.9731 24.3146 39.8889 24.4988 39.7512C24.683 39.6135 24.8256 39.4276 24.911 39.214L39.9105 1.71449ZM35.3281 6.43943L16.5938 25.1742L16.0563 24.3292C15.9578 24.1741 15.8264 24.0427 15.6713 23.9442L14.8264 23.4067L33.5607 4.67196L36.5056 3.49447L35.3307 6.43943H35.3281Z" fill="white"/>
</svg>
